<?xml version="1.0" standalone="no"?>
<!DOCTYPE svg PUBLIC "-//W3C//DTD SVG 20010904//EN"
 "http://www.w3.org/TR/2001/REC-SVG-20010904/DTD/svg10.dtd">
<svg version="1.0" xmlns="http://www.w3.org/2000/svg"
 width="700.000000pt" height="700.000000pt" viewBox="0 0 700.000000 700.000000"
 preserveAspectRatio="xMidYMid meet">
<metadata>
Created by potrace 1.14, written by Peter Selinger 2001-2017
</metadata>
<g transform="translate(0.000000,700.000000) scale(0.100000,-0.100000)"
fill="#000000" stroke="none">
<path d="M3455 6918 c-50 -44 -115 -104 -145 -132 -30 -28 -95 -87 -145 -131
-49 -44 -92 -82 -95 -85 -3 -4 -34 -33 -70 -65 -36 -33 -108 -98 -159 -145
-106 -97 -108 -98 -226 -205 -49 -44 -99 -89 -111 -100 -12 -11 -58 -53 -103
-93 -44 -41 -81 -77 -81 -80 0 -4 17 -16 38 -28 60 -33 903 -499 952 -527 97
-54 969 -536 1030 -569 57 -31 139 -77 260 -145 154 -86 350 -193 355 -193 3
0 -9 28 -28 63 -116 214 -397 724 -433 789 -24 43 -44 79 -44 81 0 2 -22 42
-48 88 -27 46 -68 120 -91 164 -24 44 -144 262 -266 485 -122 223 -239 437
-260 475 -56 103 -237 430 -239 432 -1 1 -42 -34 -91 -79z m210 -545 c93 -170
176 -321 185 -338 9 -16 81 -147 160 -290 141 -257 188 -341 220 -400 222
-401 234 -425 226 -425 -2 0 -120 65 -262 143 -143 79 -284 157 -314 174 -96
53 -922 510 -1030 570 -25 14 -74 41 -110 61 -36 19 -70 39 -77 44 -13 11 -19
5 125 135 47 43 96 87 108 98 77 70 190 173 208 188 24 21 81 73 206 187 157
144 175 159 181 160 3 0 81 -138 174 -307z"/>
<path d="M2271 5738 c-12 -51 -23 -103 -26 -115 -32 -150 -77 -338 -81 -345
-6 -9 -6 -9 56 -13 214 -12 387 -22 515 -30 39 -2 126 -7 195 -10 69 -4 135
-8 147 -10 43 -7 61 5 72 50 6 23 13 49 16 56 5 14 -3 20 -105 77 -25 14 -88
50 -140 80 -52 30 -115 66 -140 80 -25 14 -62 36 -82 49 -21 12 -39 23 -41 23
-2 0 -82 45 -177 100 -96 55 -178 100 -181 100 -4 0 -16 -42 -28 -92z m331
-230 c117 -67 224 -127 238 -135 27 -14 42 -14 -240 2 -169 10 -265 17 -268
20 -5 4 49 235 54 235 2 0 100 -55 216 -122z"/>
<path d="M4945 5651 c-33 -10 -139 -42 -235 -71 -96 -29 -194 -57 -217 -63
-24 -6 -43 -15 -43 -21 0 -12 5 -22 62 -126 20 -36 75 -139 123 -230 48 -91
100 -187 115 -215 15 -27 53 -98 84 -157 32 -60 63 -108 70 -108 7 0 35 7 62
15 l50 15 0 490 c0 269 -3 490 -6 489 -3 0 -32 -8 -65 -18z m-60 -421 c0 -143
-2 -260 -5 -260 -3 0 -18 24 -33 53 -15 28 -46 88 -70 132 -118 219 -137 258
-132 264 8 8 205 70 225 70 13 1 15 -34 15 -259z"/>
<path d="M5077 5663 c-3 -4 -6 -485 -6 -1068 -1 -583 -3 -1237 -4 -1452 -2
-216 0 -393 3 -393 3 0 77 111 165 245 149 229 333 509 749 1142 93 142 230
351 305 466 75 114 195 297 267 407 l131 199 -26 10 c-25 9 -1335 384 -1471
420 -36 10 -75 21 -87 25 -12 4 -23 3 -26 -1z m533 -348 c168 -47 319 -90 335
-96 17 -5 111 -32 210 -60 99 -28 188 -53 198 -55 9 -3 17 -9 17 -13 0 -5 -69
-112 -152 -240 -84 -127 -247 -374 -361 -548 -460 -702 -587 -893 -590 -893
-1 0 -2 303 0 673 1 369 2 820 2 1000 1 308 2 328 19 323 9 -3 154 -44 322
-91z"/>
<path d="M407 5292 c-26 -3 -28 -6 -22 -30 4 -15 8 -31 9 -37 2 -5 6 -21 9
-35 16 -61 139 -557 143 -575 2 -11 20 -83 39 -160 20 -77 38 -149 40 -160 21
-94 139 -561 142 -565 4 -5 101 43 233 115 41 23 116 63 165 90 162 86 228
122 350 187 66 36 154 83 195 105 171 91 388 208 435 233 28 15 91 49 140 75
50 26 176 94 280 150 105 56 226 122 270 145 44 24 103 55 130 70 28 15 91 48
140 75 50 26 115 61 145 78 30 16 81 43 113 60 32 16 56 31 55 33 -2 1 -55 5
-118 8 -63 3 -155 8 -205 10 -49 3 -146 8 -215 11 -157 7 -286 13 -420 20 -58
3 -157 8 -220 10 -63 3 -160 7 -215 10 -55 3 -145 7 -200 10 -55 3 -145 8
-200 10 -55 3 -147 8 -205 10 -58 3 -148 7 -200 10 -52 2 -149 7 -215 10 -66
3 -154 7 -195 10 -41 2 -140 7 -220 10 -80 4 -147 8 -150 9 -3 1 -18 0 -33 -2z
m453 -217 c85 -4 178 -9 205 -10 28 -2 118 -7 200 -10 83 -3 186 -8 230 -10
44 -3 130 -7 190 -10 140 -6 306 -14 415 -20 47 -2 144 -7 215 -10 72 -3 155
-8 185 -10 30 -2 85 -5 123 -6 37 -1 67 -5 67 -8 0 -3 -35 -24 -78 -47 -65
-35 -392 -210 -692 -372 -69 -36 -358 -192 -555 -297 -44 -24 -165 -89 -269
-144 -104 -56 -192 -98 -196 -94 -6 6 -50 170 -65 243 -2 8 -17 68 -34 132
-17 64 -33 129 -36 145 -3 15 -34 141 -69 280 -35 139 -62 254 -59 256 2 3 18
3 36 2 18 -2 102 -6 187 -10z"/>
<path d="M1948 4233 c-8 -10 -96 -139 -195 -288 -203 -305 -411 -614 -700
-1043 -109 -162 -205 -305 -213 -318 -8 -13 -127 -191 -265 -396 -137 -204
-251 -376 -253 -383 -2 -9 431 -142 703 -215 17 -4 226 -64 465 -133 239 -69
437 -124 439 -121 3 3 6 73 7 157 1 84 5 391 8 682 3 292 9 771 12 1065 3 294
7 642 8 773 2 130 2 237 1 237 -1 0 -9 -8 -17 -17z m-185 -690 c-1 -21 -4
-321 -8 -668 -4 -346 -8 -758 -10 -915 -2 -157 -4 -305 -4 -329 -1 -36 -4 -43
-18 -38 -10 3 -128 37 -263 76 -135 39 -267 78 -295 86 -27 8 -158 46 -290 84
-157 45 -239 74 -237 82 3 11 87 139 437 659 94 140 285 425 424 632 140 208
256 376 260 374 4 -3 6 -22 4 -43z"/>
<path d="M2777 4174 c-1 -2 -15 -5 -30 -8 -135 -24 -282 -118 -361 -230 -44
-61 -88 -155 -100 -211 -3 -16 -9 -41 -12 -55 -14 -61 -13 -267 2 -339 49
-234 186 -394 401 -467 112 -39 275 -45 393 -15 125 31 204 75 285 156 90 90
151 204 169 315 3 19 8 49 11 65 16 99 1 287 -31 383 -72 213 -247 361 -473
402 -52 9 -245 12 -254 4z m227 -325 c58 -22 80 -40 113 -96 36 -62 55 -146
55 -243 1 -166 -45 -279 -136 -335 -45 -27 -57 -30 -135 -30 -76 0 -92 3 -134
28 -49 29 -88 79 -114 151 -19 50 -27 253 -12 311 5 22 11 48 14 58 10 43 63
113 108 142 59 38 160 44 241 14z"/>
<path d="M3714 4158 c-6 -10 -6 -1296 0 -1306 3 -5 319 -8 347 -3 3 1 5 76 5
169 -1 92 0 179 2 193 l4 26 126 0 c171 1 244 13 333 58 142 72 226 209 233
380 11 240 -131 427 -359 476 -67 14 -683 20 -691 7z m593 -308 c54 -30 83
-83 83 -150 0 -143 -102 -202 -312 -181 -10 1 -13 42 -12 174 1 94 2 175 3
179 1 4 45 6 99 4 81 -2 106 -7 139 -26z"/>
<path d="M1610 4114 c-66 -35 -209 -113 -265 -144 -16 -9 -141 -76 -277 -149
-136 -73 -250 -136 -253 -140 -2 -5 26 -35 63 -67 36 -33 76 -68 88 -79 11
-11 54 -49 95 -85 41 -35 85 -75 99 -87 14 -12 36 -32 50 -43 l25 -22 19 24
c10 13 66 93 125 178 59 85 169 244 244 353 l138 198 -20 27 c-10 15 -30 37
-43 49 l-23 21 -65 -34z m-135 -241 c-59 -92 -257 -373 -263 -373 -7 0 -65 49
-141 118 -34 31 -35 33 -16 45 20 12 142 79 286 155 45 24 96 53 113 63 40 25
42 24 21 -8z"/>
<path d="M5751 3663 c-23 -27 -41 -51 -41 -55 0 -4 -99 -156 -220 -338 -121
-182 -220 -334 -220 -338 0 -4 19 -27 43 -50 l42 -42 79 45 c43 25 80 45 83
45 3 0 17 8 31 18 15 11 56 35 92 54 36 20 144 80 240 135 96 55 202 115 235
133 33 18 72 41 87 50 l28 17 -88 75 c-48 42 -96 84 -107 95 -52 48 -234 203
-238 203 -3 0 -24 -21 -46 -47z m149 -213 c35 -30 72 -63 83 -73 11 -9 18 -19
16 -21 -2 -2 -26 -16 -54 -31 -27 -16 -95 -54 -150 -85 -55 -31 -122 -69 -150
-85 -27 -15 -66 -37 -85 -48 -22 -13 -31 -16 -24 -7 6 8 70 106 144 217 89
136 137 200 145 195 7 -4 41 -32 75 -62z"/>
<path d="M6150 3232 c-58 -32 -136 -75 -175 -97 -38 -21 -83 -46 -100 -55 -16
-9 -41 -23 -55 -31 -14 -9 -119 -68 -235 -132 -115 -63 -454 -250 -753 -416
-298 -166 -545 -301 -548 -301 -3 0 -17 -8 -32 -19 -15 -10 -165 -94 -334
-187 -168 -93 -306 -170 -304 -171 1 -1 82 -5 181 -8 99 -3 223 -8 275 -10 52
-2 167 -7 255 -10 88 -3 201 -7 250 -10 50 -2 176 -7 280 -10 105 -4 224 -8
265 -10 41 -2 154 -7 250 -10 96 -3 218 -8 270 -10 52 -2 172 -7 265 -11 371
-13 673 -25 723 -28 23 -1 42 0 42 2 0 3 -34 138 -76 301 -42 163 -77 303 -79
311 -2 8 -19 76 -39 150 -37 141 -115 444 -121 470 -2 8 -20 78 -40 155 -43
167 -43 167 -44 183 -1 19 -8 16 -121 -46z m35 -417 c25 -99 48 -187 50 -195
2 -8 11 -44 20 -80 9 -36 18 -72 20 -80 2 -8 33 -130 69 -271 36 -141 66 -261
66 -267 0 -8 -31 -10 -97 -7 -129 6 -302 13 -493 20 -85 3 -198 8 -250 10 -52
2 -178 7 -280 11 -102 3 -214 7 -250 9 -36 1 -153 6 -260 10 -107 4 -222 8
-255 10 -33 2 -91 4 -129 4 -41 1 -66 5 -60 10 7 7 533 299 1299 722 28 15
151 84 275 152 124 69 226 124 227 123 0 0 22 -82 48 -181z"/>
<path d="M2087 2519 c22 -41 60 -110 83 -154 24 -44 64 -118 90 -165 26 -47
65 -119 87 -160 44 -81 283 -525 340 -630 20 -36 48 -87 63 -115 15 -27 41
-75 57 -105 17 -30 94 -174 173 -320 78 -146 155 -287 170 -315 15 -27 44 -81
65 -120 20 -38 50 -92 65 -120 15 -27 60 -110 99 -183 l73 -133 51 48 c29 26
54 50 57 53 3 3 25 23 50 44 53 46 192 170 269 241 31 28 60 55 67 60 6 6 176
158 378 339 l366 329 -72 40 c-40 22 -255 142 -478 267 -223 125 -430 241
-460 257 -30 17 -109 61 -175 98 -66 38 -140 79 -165 93 -111 62 -949 531
-980 549 -19 11 -82 46 -140 78 -58 32 -120 67 -139 78 l-34 21 40 -75z m714
-575 c134 -76 264 -148 289 -162 25 -14 284 -159 575 -322 551 -309 594 -333
653 -364 l36 -18 -39 -36 c-22 -20 -83 -75 -135 -122 -52 -48 -115 -104 -140
-126 -24 -21 -51 -46 -60 -54 -27 -25 -176 -159 -328 -295 -80 -72 -147 -124
-151 -119 -5 5 -145 261 -311 569 -167 308 -315 583 -330 610 -51 94 -157 290
-200 370 -24 44 -58 108 -77 143 -19 34 -32 62 -30 62 3 0 114 -61 248 -136z"/>
<path d="M2031 2322 l-41 -14 -1 -156 c0 -86 -1 -307 -3 -490 -2 -298 -1 -332
13 -328 128 35 538 161 545 167 9 8 -7 42 -84 184 -15 28 -64 120 -108 205
-44 85 -101 193 -126 240 -25 47 -60 113 -77 147 -35 69 -40 71 -118 45z m144
-377 c200 -379 198 -375 171 -375 -7 0 -57 -13 -111 -30 -54 -16 -103 -30
-109 -30 -8 0 -10 50 -9 172 1 95 2 215 3 267 0 52 2 92 4 90 1 -2 24 -44 51
-94z"/>
<path d="M3876 1724 c-9 -26 -16 -55 -16 -63 0 -14 73 -59 235 -146 22 -12
114 -64 205 -115 91 -51 190 -107 220 -123 30 -16 86 -48 123 -69 38 -22 73
-36 77 -32 11 12 134 533 128 540 -2 1 -60 6 -128 9 -69 3 -150 8 -180 10 -30
2 -116 7 -190 10 -74 4 -155 8 -180 10 -25 2 -97 7 -161 10 l-117 6 -16 -47z
m659 -121 c44 -3 96 -6 115 -7 40 -2 40 5 8 -133 -12 -51 -26 -93 -30 -93 -5
0 -43 20 -86 44 -42 25 -142 81 -222 126 l-145 81 140 -6 c77 -3 176 -8 220
-12z"/>
</g>
</svg>
